# xmcd CD database file
#
# Track frame offsets:
#	150
#	14142
#	31397
#	39195
#	63655
#
# Disc length: 1180 seconds
#
# Revision: 0
# Processed by: cddbd v1.5.1PL0 Copyright (c) Steve Scherf et al.
# Submitted via: CDex 1.51
#
DISCID=3d049a05
DTITLE=BACK DROP BOMB - BACK DROP BOMB VS ECHO/SOUL CAMP VOL.2
DYEAR=1997
DGENRE=Punk Rock
TTITLE0=THAT'S THE WAY WE UNITE
TTITLE1=breath
TTITLE2=Instrumental -見えない世界を越えて-
TTITLE3=Ｓｗａｌｌ of inside
TTITLE4=If there is no wind leave will not move
EXTD=YEAR: 1997
EXTT0=
EXTT1=
EXTT2=
EXTT3=
EXTT4=
PLAYORDER=
